# xmcd
#
# Track frame offsets:
#	150
#	15221
#	30500
#	49122
#	62411
#	79271
#	92215
#	104746
#	121304
#	133976
#	151843
#	163767
#	179050
#	195336
#	207059
#	218933
#	231848
#
# Disc length: 3441 seconds
#
# Revision: 3
# Processed by: cddbd v1.5.2PL0 Copyright (c) Steve Scherf et al.
# Submitted via: audiograbber 1.83.01
#
DISCID=e50d6f11
DTITLE=Various Artist - MOTOWN Love - CD1
DYEAR=2009
DGENRE=R&B
TTITLE0=Stevie Wonder - Isn't She Lovely
TTITLE1=Michael Jackson - Got To Be There
TTITLE2=Lionel Richie - Hello
TTITLE3=Marvin Gaye - How Sweet It Is (To Be Loved By You)
TTITLE4=Gladys Knight and The Pips - You've Lost That Lovin' Feelin'
TTITLE5=Rita Wright - Where Is The Love
TTITLE6=Smokey Robinson and The Miracles - I Second That Emotion
TTITLE7=Diana Ross - Remember Me
TTITLE8=Four Tops - Loving You Is Sweeter Than Ever
TTITLE9=Smokey Robinson - Being With You
TTITLE10=The Temptations - The Way You Do The Things You Do
TTITLE11=Diana Ross - Theme From Mahogany (Do You Know Where You're Going To)
TTITLE12=Commodores - Three Times A Lady
TTITLE13=Stevie Wonder - I Was Made To Love Her
TTITLE14=The Isley Brothers - I Guess I'll Always Love You
TTITLE15=The Miracles - Love Machine - Pt1 (with Billy Griffin)
TTITLE16=Boyz II Men - End Of The Road
EXTD=freedb: e50d6f11, cdplayer.ini: 1BD3A8C, Track frame offsets: 150 15221 30
EXTD=500 49122 62411 79271 92215 104746 121304 133976 151843 163767 179050 1953
EXTD=36 207059 218933 231848, Disc length: 3441 seconds.
EXTT0=
EXTT1=
EXTT2=
EXTT3=
EXTT4=
EXTT5=
EXTT6=
EXTT7=
EXTT8=
EXTT9=
EXTT10=
EXTT11=
EXTT12=
EXTT13=
EXTT14=
EXTT15=
EXTT16=
PLAYORDER=
